<svg width="35" height="24" viewBox="0 0 35 24" fill="none" xmlns="http://www.w3.org/2000/svg">
<path fill-rule="evenodd" clip-rule="evenodd" d="M33.8182 2.18182H1.09091C0.488727 2.18182 0 1.69309 0 1.09091C0 0.488727 0.488727 0 1.09091 0H33.8182C34.4204 0 34.9091 0.488727 34.9091 1.09091C34.9091 1.69309 34.4204 2.18182 33.8182 2.18182Z" fill="white"/>
<path fill-rule="evenodd" clip-rule="evenodd" d="M33.8182 13.091H1.09091C0.488727 13.091 0 12.6023 0 12.0001C0 11.3979 0.488727 10.9092 1.09091 10.9092H33.8182C34.4204 10.9092 34.9091 11.3979 34.9091 12.0001C34.9091 12.6023 34.4204 13.091 33.8182 13.091Z" fill="white"/>
<path fill-rule="evenodd" clip-rule="evenodd" d="M33.8182 24.0002H1.09091C0.488727 24.0002 0 23.5115 0 22.9093C0 22.3071 0.488727 21.8184 1.09091 21.8184H33.8182C34.4204 21.8184 34.9091 22.3071 34.9091 22.9093C34.9091 23.5115 34.4204 24.0002 33.8182 24.0002Z" fill="white"/>
</svg>
