<svg width="288" height="66" viewBox="0 0 288 66" fill="none" xmlns="http://www.w3.org/2000/svg">
<path fill-rule="evenodd" clip-rule="evenodd" d="M20.3474 64.2157C8.10706 60.922 0 47.6636 0 32.2519C0 14.4397 12.5844 0 28.1081 0C28.4182 0 28.727 0.00575987 29.0346 0.0171915C29.3507 0.00575976 29.668 0 29.9865 0C31.3483 0 32.6882 0.105294 34 0.309016V0.370597C19.861 2.74349 9.02678 16.2246 9.02678 32.5C9.02678 47.5848 18.3339 60.2693 30.9532 63.9336C31.2999 64.0082 31.6489 64.0758 32 64.136V64.2149C32.6586 64.3777 33.3255 64.5162 34 64.6294V64.8402C32.0941 65.2725 30.1445 65.5 28.1765 65.5C25.4115 65.5 22.791 65.051 20.3474 64.2157Z" fill="black"/>
<mask id="path-2-inside-1_14_6" fill="white">
<path fill-rule="evenodd" clip-rule="evenodd" d="M53.6526 64.2157C65.8929 60.922 74 47.6636 74 32.2519C74 14.4397 61.4156 0 45.8919 0C45.5818 0 45.273 0.00575987 44.9654 0.0171915C44.6493 0.00575976 44.332 0 44.0135 0C42.6517 0 41.3118 0.105294 40 0.309016V0.370597C54.139 2.74349 64.9732 16.2246 64.9732 32.5C64.9732 47.5848 55.6661 60.2693 43.0468 63.9336C42.7001 64.0082 42.3511 64.0758 42 64.136V64.2149C41.3414 64.3777 40.6745 64.5162 40 64.6294V64.8402C41.9059 65.2725 43.8555 65.5 45.8235 65.5C48.5885 65.5 51.209 65.051 53.6526 64.2157Z"/>
</mask>
<path d="M53.6526 64.2157L53.3291 63.2695L53.3606 63.2587L53.3927 63.25L53.6526 64.2157ZM44.9654 0.0171915L45.0025 1.0165L44.9658 1.01786L44.9292 1.01654L44.9654 0.0171915ZM40 0.309016H39V-0.547673L39.8465 -0.679139L40 0.309016ZM40 0.370597L39.8345 1.3568L39 1.21676V0.370597H40ZM43.0468 63.9336L43.3257 64.8939L43.2917 64.9038L43.2572 64.9112L43.0468 63.9336ZM42 64.136H41V63.2931L41.8307 63.1505L42 64.136ZM42 64.2149H43V64.9978L42.24 65.1857L42 64.2149ZM40 64.6294H39V63.7832L39.8345 63.6432L40 64.6294ZM40 64.8402L39.7788 65.8154L39 65.6388V64.8402H40ZM53.3927 63.25C65.0558 60.1117 73 47.3757 73 32.2519H75C75 47.9516 66.73 61.7323 53.9124 65.1813L53.3927 63.25ZM73 32.2519C73 14.8584 60.7386 1 45.8919 1V-1C62.0926 -1 75 14.021 75 32.2519H73ZM45.8919 1C45.5942 1 45.2977 1.00553 45.0025 1.0165L44.9282 -0.982119C45.2482 -0.99401 45.5695 -1 45.8919 -1V1ZM44.9292 1.01654C44.6252 1.00554 44.32 1 44.0135 1V-1C44.3441 -1 44.6734 -0.994022 45.0015 -0.982155L44.9292 1.01654ZM44.0135 1C42.7034 1 41.4148 1.10129 40.1535 1.29717L39.8465 -0.679139C41.2089 -0.890704 42.6 -1 44.0135 -1V1ZM41 0.309016V0.370597H39V0.309016H41ZM40.1655 -0.615611C54.848 1.84849 65.9732 15.8017 65.9732 32.5H63.9732C63.9732 16.6476 53.43 3.63848 39.8345 1.3568L40.1655 -0.615611ZM65.9732 32.5C65.9732 47.9821 56.4163 61.0927 43.3257 64.8939L42.768 62.9733C54.9159 59.4458 63.9732 47.1876 63.9732 32.5H65.9732ZM43.2572 64.9112C42.8968 64.9888 42.5342 65.059 42.1693 65.1216L41.8307 63.1505C42.168 63.0926 42.5033 63.0277 42.8364 62.956L43.2572 64.9112ZM43 64.136V64.2149H41V64.136H43ZM42.24 65.1857C41.5569 65.3546 40.8651 65.4982 40.1655 65.6156L39.8345 63.6432C40.4838 63.5342 41.1259 63.4009 41.76 63.2441L42.24 65.1857ZM41 64.6294V64.8402H39V64.6294H41ZM40.2212 63.865C42.0574 64.2815 43.9327 64.5 45.8235 64.5V66.5C43.7782 66.5 41.7545 66.2636 39.7788 65.8154L40.2212 63.865ZM45.8235 64.5C48.4789 64.5 50.9901 64.0691 53.3291 63.2695L53.976 65.1619C51.4279 66.033 48.6981 66.5 45.8235 66.5V64.5Z" fill="black" mask="url(#path-2-inside-1_14_6)"/>
<path d="M29.94 42V22.4H32.236L41.028 37.212H39.796L48.476 22.4H50.772L50.8 42H48.112L48.084 26.628H48.728L41 39.62H39.712L31.928 26.628H32.628V42H29.94ZM59.5942 42L68.4702 22.4H71.2422L80.1462 42H77.2062L69.2822 23.968H70.4022L62.4782 42H59.5942ZM63.3742 37.1L64.1302 34.86H75.1622L75.9742 37.1H63.3742ZM88.95 42V22.4H91.75V39.564H102.362V42H88.95ZM108.487 42L117.363 22.4H120.135L129.039 42H126.099L118.175 23.968H119.295L111.371 42H108.487ZM112.267 37.1L113.023 34.86H124.055L124.867 37.1H112.267ZM137.843 42V22.4H140.139L148.931 37.212H147.699L156.379 22.4H158.675L158.703 42H156.015L155.987 26.628H156.631L148.903 39.62H147.615L139.831 26.628H140.531V42H137.843ZM170.465 42V22.4H173.265V42H170.465ZM185.013 42V22.4H187.309L200.273 38.5H199.069V22.4H201.869V42H199.573L186.609 25.9H187.813V42H185.013ZM213.616 42V22.4H216.416V42H213.616Z" fill="black"/>
<path d="M225.908 42.09C225.644 42.09 225.416 41.994 225.224 41.802C225.044 41.61 224.954 41.376 224.954 41.1C224.954 40.812 225.044 40.578 225.224 40.398C225.416 40.218 225.644 40.128 225.908 40.128C226.172 40.128 226.394 40.218 226.574 40.398C226.766 40.578 226.862 40.812 226.862 41.1C226.862 41.376 226.766 41.61 226.574 41.802C226.394 41.994 226.172 42.09 225.908 42.09ZM239.487 42.108C238.539 42.108 237.663 41.952 236.859 41.64C236.055 41.316 235.359 40.866 234.771 40.29C234.183 39.714 233.721 39.036 233.385 38.256C233.061 37.476 232.899 36.624 232.899 35.7C232.899 34.776 233.061 33.924 233.385 33.144C233.721 32.364 234.183 31.686 234.771 31.11C235.371 30.534 236.073 30.09 236.877 29.778C237.681 29.454 238.557 29.292 239.505 29.292C240.417 29.292 241.275 29.448 242.079 29.76C242.883 30.06 243.561 30.516 244.113 31.128L243.267 31.974C242.751 31.446 242.181 31.068 241.557 30.84C240.933 30.6 240.261 30.48 239.541 30.48C238.785 30.48 238.083 30.612 237.435 30.876C236.787 31.128 236.223 31.494 235.743 31.974C235.263 32.442 234.885 32.994 234.609 33.63C234.345 34.254 234.213 34.944 234.213 35.7C234.213 36.456 234.345 37.152 234.609 37.788C234.885 38.412 235.263 38.964 235.743 39.444C236.223 39.912 236.787 40.278 237.435 40.542C238.083 40.794 238.785 40.92 239.541 40.92C240.261 40.92 240.933 40.8 241.557 40.56C242.181 40.32 242.751 39.936 243.267 39.408L244.113 40.254C243.561 40.866 242.883 41.328 242.079 41.64C241.275 41.952 240.411 42.108 239.487 42.108ZM256.697 42.108C255.749 42.108 254.867 41.952 254.051 41.64C253.247 41.316 252.545 40.866 251.945 40.29C251.357 39.702 250.895 39.024 250.559 38.256C250.235 37.476 250.073 36.624 250.073 35.7C250.073 34.776 250.235 33.93 250.559 33.162C250.895 32.382 251.357 31.704 251.945 31.128C252.545 30.54 253.247 30.09 254.051 29.778C254.855 29.454 255.737 29.292 256.697 29.292C257.645 29.292 258.521 29.454 259.325 29.778C260.129 30.09 260.825 30.534 261.413 31.11C262.013 31.686 262.475 32.364 262.799 33.144C263.135 33.924 263.303 34.776 263.303 35.7C263.303 36.624 263.135 37.476 262.799 38.256C262.475 39.036 262.013 39.714 261.413 40.29C260.825 40.866 260.129 41.316 259.325 41.64C258.521 41.952 257.645 42.108 256.697 42.108ZM256.697 40.92C257.453 40.92 258.149 40.794 258.785 40.542C259.433 40.278 259.991 39.912 260.459 39.444C260.939 38.964 261.311 38.412 261.575 37.788C261.839 37.152 261.971 36.456 261.971 35.7C261.971 34.944 261.839 34.254 261.575 33.63C261.311 32.994 260.939 32.442 260.459 31.974C259.991 31.494 259.433 31.128 258.785 30.876C258.149 30.612 257.453 30.48 256.697 30.48C255.941 30.48 255.239 30.612 254.591 30.876C253.943 31.128 253.379 31.494 252.899 31.974C252.431 32.442 252.059 32.994 251.783 33.63C251.519 34.254 251.387 34.944 251.387 35.7C251.387 36.444 251.519 37.134 251.783 37.77C252.059 38.406 252.431 38.964 252.899 39.444C253.379 39.912 253.943 40.278 254.591 40.542C255.239 40.794 255.941 40.92 256.697 40.92ZM270.788 42V29.4H271.886L277.646 39.228H277.07L282.776 29.4H283.874V42H282.596V31.398H282.902L277.646 40.398H277.016L271.724 31.398H272.066V42H270.788Z" fill="black"/>
</svg>
